<svg width="34" height="34" viewBox="0 0 34 34" fill="none" xmlns="http://www.w3.org/2000/svg">
<rect width="34" height="34" rx="17" fill="#4B4BEB"/>
<path d="M23.4166 11.75C22.858 12.144 22.2395 12.4454 21.5849 12.6425C21.2336 12.2386 20.7667 11.9522 20.2474 11.8223C19.728 11.6923 19.1813 11.725 18.6811 11.9159C18.181 12.1068 17.7515 12.4467 17.4508 12.8897C17.1501 13.3326 16.9927 13.8572 16.9999 14.3925V14.9758C15.9748 15.0024 14.959 14.7751 14.043 14.314C13.127 13.853 12.3393 13.1725 11.7499 12.3333C11.7499 12.3333 9.41659 17.5833 14.6666 19.9167C13.4652 20.7322 12.0341 21.141 10.5833 21.0833C15.8333 24 22.2499 21.0833 22.2499 14.375C22.2494 14.2125 22.2338 14.0504 22.2033 13.8908C22.7986 13.3037 23.2187 12.5624 23.4166 11.75Z" stroke="white" stroke-linecap="round" stroke-linejoin="round"/>
</svg>
