<svg width="34" height="34" viewBox="0 0 34 34" fill="none" xmlns="http://www.w3.org/2000/svg">
<rect width="34" height="34" rx="17" fill="#4B4BEB"/>
<path d="M19.5664 10.7771H13.7331C12.1222 10.7771 10.8164 12.0829 10.8164 13.6938V19.5271C10.8164 21.1379 12.1222 22.4438 13.7331 22.4438H19.5664C21.1772 22.4438 22.4831 21.1379 22.4831 19.5271V13.6938C22.4831 12.0829 21.1772 10.7771 19.5664 10.7771Z" stroke="white" stroke-linecap="round" stroke-linejoin="round"/>
<path d="M18.983 16.2428C19.055 16.7283 18.9721 17.2241 18.746 17.6597C18.52 18.0953 18.1623 18.4486 17.7239 18.6693C17.2855 18.8899 16.7887 18.9667 16.3042 18.8887C15.8196 18.8108 15.372 18.582 15.025 18.235C14.6779 17.8879 14.4492 17.4403 14.3712 16.9557C14.2932 16.4712 14.37 15.9744 14.5907 15.536C14.8113 15.0976 15.1646 14.74 15.6002 14.5139C16.0359 14.2879 16.5317 14.205 17.0172 14.2769C17.5124 14.3504 17.9708 14.5811 18.3248 14.9351C18.6788 15.2891 18.9096 15.7476 18.983 16.2428Z" stroke="white" stroke-linecap="round" stroke-linejoin="round"/>
<path d="M19.8579 13.4021H19.8637" stroke="white" stroke-linecap="round" stroke-linejoin="round"/>
</svg>
