<svg width="34" height="34" viewBox="0 0 34 34" fill="none" xmlns="http://www.w3.org/2000/svg">
<rect width="34" height="34" rx="17" fill="#4B4BEB"/>
<g clip-path="url(#clip0_3066_51)">
<path d="M22.798 13.3553C22.7287 13.0784 22.5876 12.8248 22.3889 12.6199C22.1902 12.4151 21.9409 12.2663 21.6663 12.1886C20.663 11.9436 16.6497 11.9436 16.6497 11.9436C16.6497 11.9436 12.6363 11.9436 11.633 12.2119C11.3584 12.2896 11.1092 12.4384 10.9105 12.6433C10.7118 12.8481 10.5706 13.1018 10.5013 13.3786C10.3177 14.3968 10.2279 15.4298 10.233 16.4644C10.2265 17.5069 10.3163 18.5477 10.5013 19.5736C10.5777 19.8418 10.722 20.0859 10.9203 20.282C11.1185 20.4782 11.364 20.62 11.633 20.6936C12.6363 20.9619 16.6497 20.9619 16.6497 20.9619C16.6497 20.9619 20.663 20.9619 21.6663 20.6936C21.9409 20.6159 22.1902 20.4671 22.3889 20.2623C22.5876 20.0574 22.7287 19.8038 22.798 19.5269C22.9802 18.5164 23.07 17.4913 23.0663 16.4644C23.0729 15.422 22.9831 14.3812 22.798 13.3553Z" stroke="white" stroke-linecap="round" stroke-linejoin="round"/>
<path d="M15.3372 18.3721L18.6913 16.4646L15.3372 14.5571V18.3721Z" stroke="white" stroke-linecap="round" stroke-linejoin="round"/>
</g>
<defs>
<clipPath id="clip0_3066_51">
<rect width="14" height="14" fill="white" transform="translate(9.64966 9.61035)"/>
</clipPath>
</defs>
</svg>
